<svg xmlns="http://www.w3.org/2000/svg" xmlns:xlink="http://www.w3.org/1999/xlink" width="190" height="190" viewBox="0 0 190 190"><defs><filter id="a" x="0" y="0" width="190" height="190" filterUnits="userSpaceOnUse"><feOffset dy="10" input="SourceAlpha"/><feGaussianBlur stdDeviation="10" result="b"/><feFlood flood-color="#d4cbf0" flood-opacity="0.502"/><feComposite operator="in" in2="b"/><feComposite in="SourceGraphic"/></filter></defs><g transform="translate(-1380 -1157)"><g transform="matrix(1, 0, 0, 1, 1380, 1157)" filter="url(#a)"><circle cx="65" cy="65" r="65" transform="translate(30 20)" fill="#fff"/></g><g transform="translate(-404.309 -497.007)"><g transform="translate(1843.309 1710.007)"><path d="M1966.462,1725.291a7.642,7.642,0,1,1,7.642-7.642A7.651,7.651,0,0,1,1966.462,1725.291Zm0-12.646a5,5,0,1,0,5,5A5.01,5.01,0,0,0,1966.462,1712.645Z" transform="translate(-1938.507 -1710.007)" fill="#f74d49"/><path d="M1844.628,1773.55a1.319,1.319,0,0,1-1.319-1.319v-33.506a12.051,12.051,0,0,1,1.914-6.523l.392-.61a12.027,12.027,0,0,1,8.821-5.478l11.57-1.293a1.319,1.319,0,0,1,.293,2.622l-11.57,1.292a9.4,9.4,0,0,0-6.894,4.281l-.392.61a9.419,9.419,0,0,0-1.5,5.1v33.506A1.319,1.319,0,0,1,1844.628,1773.55Z" transform="translate(-1843.309 -1722.209)" fill="#f74d49"/><path d="M1941.544,1801.251a1.319,1.319,0,0,1-1.276-.991l-1.792-6.977a13.948,13.948,0,0,1-.409-4.391l.356-5.4a3.626,3.626,0,0,1,1.625-2.782l5.366-3.512a1.319,1.319,0,0,1,1.445,2.207l-5.366,3.512a.975.975,0,0,0-.437.748l-.356,5.4a11.3,11.3,0,0,0,.332,3.562l1.792,6.977a1.32,1.32,0,0,1-1.278,1.647Z" transform="translate(-1921.378 -1765.203)" fill="#f74d49"/><path d="M1912.883,1809.264a1.319,1.319,0,0,1-1.249-.895l-2.22-6.538a13.927,13.927,0,0,1-.742-4.489v-9.726a1.319,1.319,0,0,1,2.638,0v9.726a11.3,11.3,0,0,0,.6,3.641l2.22,6.537a1.32,1.32,0,0,1-1.249,1.743Z" transform="translate(-1897.178 -1772.882)" fill="#f74d49"/><path d="M1903.991,1939.761h-14.08a3.841,3.841,0,0,1-3.837-3.837v-8.83a3.841,3.841,0,0,1,3.837-3.837h14.08a3.841,3.841,0,0,1,3.837,3.837v8.83A3.841,3.841,0,0,1,1903.991,1939.761Zm-14.08-13.865a1.2,1.2,0,0,0-1.2,1.2v8.83a1.2,1.2,0,0,0,1.2,1.2h14.08a1.2,1.2,0,0,0,1.2-1.2v-8.83a1.2,1.2,0,0,0-1.2-1.2Z" transform="translate(-1878.554 -1885.757)" fill="#f74d49"/><path d="M1927.2,1906.721a1.319,1.319,0,0,1-1.245-.884l-1.068-3.054a.491.491,0,0,0-.359-.154h-1.863a.493.493,0,0,0-.35.145l-1.146,3.086a1.319,1.319,0,1,1-2.473-.918l1.213-3.268a1.319,1.319,0,0,1,.132-.261,3.122,3.122,0,0,1,2.624-1.422h1.863a3.112,3.112,0,0,1,2.662,1.483,1.321,1.321,0,0,1,.124.259l1.131,3.233a1.32,1.32,0,0,1-1.245,1.755Z" transform="translate(-1905.374 -1866.582)" fill="#f74d49"/></g><g transform="translate(1871.746 1710.068)"><g transform="translate(0 0)"><path d="M2068.935,1976.458h-6.92a5.592,5.592,0,0,1-5.744-5.556v-9.073a1.319,1.319,0,0,1,2.638,0v9.073a2.984,2.984,0,0,0,3.106,2.918h6.92a2.62,2.62,0,0,0,2.658-2.918v-1.221a1.319,1.319,0,0,1,2.638,0v1.221A5.252,5.252,0,0,1,2068.935,1976.458Z" transform="translate(-2047.259 -1916.52)" fill="#f74d49"/><path d="M2047.794,1763.579h-20.1a14.246,14.246,0,0,1-6.74-2l-.045-.026-1.65-.991a15.468,15.468,0,0,1-8.1-13.5v-4.609a11.757,11.757,0,0,1,2.694-7.319l.158-.314h-4.746a4.245,4.245,0,0,1-4.24-4.24v-.769a3.859,3.859,0,0,1,3.854-3.854h5.045a3.2,3.2,0,0,1,3.125,2.383l.047.171.531-.3,3.889-7.475c5.008-9.584,13.453-10.387,20.976-10.387l5.366.046a1.319,1.319,0,0,1-.011,2.638h-.011l-5.355-.046c-3.417,0-7.375.18-10.74,1.516a15.026,15.026,0,0,0-7.886,7.453l-4.07,7.823a1.319,1.319,0,0,1-.527.543l-1.289.72a1.318,1.318,0,0,1-.643.168c-1.863,0-2.5-.964-2.713-1.782l-.111-.4-.009-.034a.556.556,0,0,0-.569-.4h-5.045a1.218,1.218,0,0,0-1.217,1.217v.769a1.6,1.6,0,0,0,1.6,1.6h6.886a1.319,1.319,0,0,1,1.178,1.912l-1.183,2.35a1.316,1.316,0,0,1-.153.236,9.189,9.189,0,0,0-2.2,5.772v4.609a12.832,12.832,0,0,0,6.756,11.2l.045.026,1.649.99a11.674,11.674,0,0,0,5.45,1.663h20.1a1.319,1.319,0,1,1,0,2.638Z" transform="translate(-2005.019 -1710.355)" fill="#f74d49"/><path d="M2093.756,1786.552h0l-8.82-.028a23.5,23.5,0,0,1-4.318-.525l-.338-.062-.059-.013-1.713-.4a3.076,3.076,0,0,1-2.775-2.681,2.9,2.9,0,0,1,2.335-2.814,1.322,1.322,0,0,1,.3-.052l.361-.02c3.439-.949,12.181-1.245,15.028-1.245a1.319,1.319,0,0,1,0,2.638c-3.528,0-11.65.357-14.435,1.181a1.32,1.32,0,0,1-.3.052l-.334.018a1.141,1.141,0,0,0-.245.122,1.466,1.466,0,0,0,.575.213l.059.012,1.712.4.311.058a21.536,21.536,0,0,0,3.841.48l8.823.028a1.319,1.319,0,0,1,0,2.638Zm-22.25-5.427a3.414,3.414,0,0,1-.936-.131l-5.146-1.47a7.214,7.214,0,0,1-4.5-3.783,1.319,1.319,0,1,1,2.373-1.151,4.573,4.573,0,0,0,2.855,2.4l5.146,1.471a.811.811,0,0,0,.868-.294l.818-1.1a.8.8,0,0,0-.181-1.137l-8.241-5.831a1.319,1.319,0,1,1,1.524-2.153l8.24,5.83a3.444,3.444,0,0,1,.775,4.864l-.819,1.1A3.463,3.463,0,0,1,2071.507,1781.125Zm22.249-17.694c-16.563,0-21.808-2.46-23.3-3.531a1.319,1.319,0,0,1-.546-1.51,17.742,17.742,0,0,1,6.022-8.658,1.319,1.319,0,1,1,1.622,2.08,15.1,15.1,0,0,0-4.778,6.385,17.723,17.723,0,0,0,3.438,1.11c4.2.986,10.1,1.486,17.544,1.486a1.319,1.319,0,0,1,0,2.638Zm-22.783-3.337h0Zm0,0h0Zm0,0h0Zm0,0h0Zm-.49-.178a1.267,1.267,0,0,0,.22.108A1.308,1.308,0,0,1,2070.476,1759.915Z" transform="translate(-2050.981 -1742.578)" fill="#f74d49"/></g></g></g></g></svg>